<?xml version="1.0" encoding="iso-8859-1"?>
<!-- Generator: Adobe Illustrator 19.0.0, SVG Export Plug-In . SVG Version: 6.00 Build 0)  -->
<svg version="1.1" id="Layer_1" xmlns="http://www.w3.org/2000/svg" xmlns:xlink="http://www.w3.org/1999/xlink" x="0px" y="0px"
     viewBox="0 0 512 512" style="enable-background:new 0 0 512 512;" xml:space="preserve">
<g>
	<g>
		<path d="M473.435,177.485h-54.284L380.471,42c-0.068-0.234-0.139-0.466-0.215-0.697c-14.958-44.874-73.303-55.904-103.598-19.548
			c-10.758,12.91-30.576,12.886-41.314,0C205.063-14.58,146.71-3.592,131.745,41.303c-0.076,0.231-0.148,0.463-0.215,0.697
			L92.849,177.485H38.565c-9.237,0-16.726,7.489-16.726,16.726s7.489,16.726,16.726,16.726h50.177v118.301l-8.716-4.755
			c-12.533-6.835-27.356,4.229-24.364,18.189l33.451,156.107C90.766,506.49,97.581,512,105.468,512h301.064
			c7.887,0,14.702-5.509,16.354-13.221l33.452-156.107c2.993-13.964-11.833-25.019-24.364-18.189l-8.716,4.755V210.936h50.177
			c9.237,0,16.726-7.489,16.726-16.726S482.672,177.485,473.435,177.485z M163.583,51.576c6.84-19.765,32.645-24.508,46.062-8.406
			c24.136,28.967,68.61,28.922,92.711,0c13.422-16.104,39.223-11.355,46.062,8.406l35.946,125.908H127.638L163.583,51.576z
			 M122.194,210.936h267.612v33.452c-56.258,0-211.92,0-267.612,0V210.936z M356.354,277.839c0,18.445-15.006,33.452-33.452,33.452
			c-18.445,0-33.451-15.006-33.451-33.452H356.354z M222.548,277.839c0,18.445-15.006,33.452-33.451,33.452
			c-18.445,0-33.452-15.006-33.452-33.452H222.548z M239.273,478.548H118.989L96.008,371.306l1.504,0.821
			c0.028,0.014,0.055,0.03,0.081,0.045l141.679,77.28V478.548z M122.194,347.484v-69.645c0,36.89,30.013,66.903,66.903,66.903
			c36.89,0,66.903-30.013,66.903-66.903c0,36.89,30.013,66.903,66.903,66.903s66.903-30.013,66.903-66.903v69.645L256,420.47
			L122.194,347.484z M393.011,478.548H272.726v-29.097l141.687-77.283c0.021-0.011,0.044-0.023,0.065-0.035l1.514-0.826
			L393.011,478.548z"/>
	</g>
</g>
</svg>
